<?xml version="1.0" encoding="UTF-8"?>
<svg width="90px" height="90px" viewBox="0 0 90 90" version="1.1" xmlns="http://www.w3.org/2000/svg" xmlns:xlink="http://www.w3.org/1999/xlink">
    <!-- Generator: Sketch 52.2 (67145) - http://www.bohemiancoding.com/sketch -->
    <title>Group 19</title>
    <desc>Created with Sketch.</desc>
    <defs>
        <polygon id="path-1" points="0 0 89.9998594 0 89.9998594 89.9997187 0 89.9997187"></polygon>
        <polygon id="path-3" points="0 90 90 90 90 0 0 0"></polygon>
    </defs>
    <g id="App-Design" stroke="none" stroke-width="1" fill="none" fill-rule="evenodd">
        <g id="Stickers" transform="translate(-143.000000, -88.000000)">
            <g id="Group-19" transform="translate(143.000000, 88.000000)">
                <g id="Group-3">
                    <mask id="mask-2" fill="white">
                        <use xlink:href="#path-1"></use>
                    </mask>
                    <g id="Clip-2"></g>
                    <path d="M89.9998594,44.9997187 C89.9998594,69.852375 69.8525156,89.9997187 44.9998594,89.9997187 C20.1472031,89.9997187 -0.000140625,69.852375 -0.000140625,44.9997187 C-0.000140625,20.1470625 20.1472031,-0.00028125 44.9998594,-0.00028125 C69.8525156,-0.00028125 89.9998594,20.1470625 89.9998594,44.9997187" id="Fill-1" fill="#FCC633" mask="url(#mask-2)"></path>
                </g>
                <mask id="mask-4" fill="white">
                    <use xlink:href="#path-3"></use>
                </mask>
                <g id="Clip-5"></g>
                <polygon id="Fill-4" fill="#FFFFFF" mask="url(#mask-4)" points="18.5596875 54.950625 74.1332812 54.950625 74.1332812 18.1209375 18.5596875 18.1209375"></polygon>
                <polygon id="Fill-6" fill="#62CAEF" mask="url(#mask-4)" points="18.5596875 39.1584375 49.4676562 39.1584375 49.4676562 18.1209375 18.5596875 18.1209375"></polygon>
                <path d="M17.2347187,74.5309687 C16.5034687,74.5309687 15.908625,73.936125 15.908625,73.204875 L15.908625,16.7945625 C15.908625,16.0633125 16.5034687,15.4684687 17.2347187,15.4684687 C17.9659688,15.4684687 18.5608125,16.0633125 18.5608125,16.7945625 L18.5608125,73.204875 C18.5608125,73.936125 17.9659688,74.5309687 17.2347187,74.5309687" id="Fill-7" fill="#000000" mask="url(#mask-4)"></path>
                <path d="M25.1310938,57.6023906 C24.3998438,57.6023906 23.805,57.0075469 23.805,56.2777031 C23.805,55.5450469 24.3998438,54.9502031 25.1310938,54.9502031 L71.6709375,54.9502031 C72.028125,54.9502031 72.3192188,54.6605156 72.3192188,54.3019219 L72.3192188,18.7687969 C72.3192188,18.4116094 72.028125,18.1205156 71.6709375,18.1205156 L25.1310938,18.1205156 C24.3998438,18.1205156 23.805,17.5256719 23.805,16.7944219 C23.805,16.0631719 24.3998438,15.4683281 25.1310938,15.4683281 L73.6453125,15.4683281 C74.3765625,15.4683281 74.97,16.0631719 74.97,16.7944219 L74.97,56.2777031 C74.97,57.0075469 74.3765625,57.6023906 73.6453125,57.6023906 L25.1310938,57.6023906 Z" id="Fill-8" fill="#000000" mask="url(#mask-4)"></path>
                <polygon id="Fill-9" fill="#000000" mask="url(#mask-4)" points="25.779375 26.0170313 28.4315625 26.0170313 28.4315625 23.3648437 25.779375 23.3648437"></polygon>
                <polygon id="Fill-10" fill="#000000" mask="url(#mask-4)" points="33.6754688 26.0170313 36.3276562 26.0170313 36.3276562 23.3648437 33.6754688 23.3648437"></polygon>
                <polygon id="Fill-11" fill="#000000" mask="url(#mask-4)" points="41.5715625 26.0170313 44.22375 26.0170313 44.22375 23.3648437 41.5715625 23.3648437"></polygon>
                <polygon id="Fill-12" fill="#000000" mask="url(#mask-4)" points="25.779375 33.913125 28.4315625 33.913125 28.4315625 31.2609375 25.779375 31.2609375"></polygon>
                <polygon id="Fill-13" fill="#000000" mask="url(#mask-4)" points="33.6754688 33.913125 36.3276562 33.913125 36.3276562 31.2609375 33.6754688 31.2609375"></polygon>
                <polygon id="Fill-14" fill="#000000" mask="url(#mask-4)" points="41.5715625 33.913125 44.22375 33.913125 44.22375 31.2609375 41.5715625 31.2609375"></polygon>
                <path d="M25.1310938,41.8095 C24.3998438,41.8095 23.805,41.2146563 23.805,40.4848125 C23.805,39.7521563 24.3998438,39.1573125 25.1310938,39.1573125 L65.7478125,39.1573125 C66.4790625,39.1573125 67.0753125,39.7521563 67.0753125,40.4848125 C67.0753125,41.2146563 66.4790625,41.8095 65.7478125,41.8095 L25.1310938,41.8095 Z" id="Fill-15" fill="#000000" mask="url(#mask-4)"></path>
                <path d="M50.79375,33.913125 C50.0625,33.913125 49.4676562,33.3182813 49.4676562,32.5884375 C49.4676562,31.8557813 50.0625,31.2609375 50.79375,31.2609375 L65.7478125,31.2609375 C66.4790625,31.2609375 67.0753125,31.8557813 67.0753125,32.5884375 C67.0753125,33.3182813 66.4790625,33.913125 65.7478125,33.913125 L50.79375,33.913125 Z" id="Fill-16" fill="#000000" mask="url(#mask-4)"></path>
                <path d="M50.79375,26.01675 C50.0625,26.01675 49.4676562,25.4219062 49.4676562,24.6920625 C49.4676562,23.9594062 50.0625,23.3645625 50.79375,23.3645625 L65.7478125,23.3645625 C66.4790625,23.3645625 67.0753125,23.9594062 67.0753125,24.6920625 C67.0753125,25.4219062 66.4790625,26.01675 65.7478125,26.01675 L50.79375,26.01675 Z" id="Fill-17" fill="#000000" mask="url(#mask-4)"></path>
                <path d="M25.1310938,49.7060156 C24.3998438,49.7060156 23.805,49.1111719 23.805,48.3813281 C23.805,47.6486719 24.3998438,47.0538281 25.1310938,47.0538281 L65.7478125,47.0538281 C66.4790625,47.0538281 67.0753125,47.6486719 67.0753125,48.3813281 C67.0753125,49.1111719 66.4790625,49.7060156 65.7478125,49.7060156 L25.1310938,49.7060156 Z" id="Fill-18" fill="#000000" mask="url(#mask-4)"></path>
            </g>
        </g>
    </g>
</svg>